<?xml version="1.0" encoding="UTF-8" standalone="no"?>
<!-- Generator: Adobe Illustrator 16.0.0, SVG Export Plug-In . SVG Version: 6.00 Build 0)  -->

<svg
   xmlns:dc="http://purl.org/dc/elements/1.1/"
   xmlns:cc="http://creativecommons.org/ns#"
   xmlns:rdf="http://www.w3.org/1999/02/22-rdf-syntax-ns#"
   xmlns:svg="http://www.w3.org/2000/svg"
   xmlns="http://www.w3.org/2000/svg"
   xmlns:sodipodi="http://sodipodi.sourceforge.net/DTD/sodipodi-0.dtd"
   xmlns:inkscape="http://www.inkscape.org/namespaces/inkscape"
   version="1.1"
   id="Capa_1"
   x="0px"
   y="0px"
   width="720"
   height="200"
   viewBox="0 0 719.99999 199.99999"
   enable-background="new 0 0 841.89 595.28"
   xml:space="preserve"
   inkscape:version="0.48.4 r9939"
   sodipodi:docname="eHealth_horiz.svg"><metadata
     id="metadata55"><rdf:RDF><cc:Work
         rdf:about=""><dc:format>image/svg+xml</dc:format><dc:type
           rdf:resource="http://purl.org/dc/dcmitype/StillImage" /></cc:Work></rdf:RDF></metadata><defs
     id="defs53" /><sodipodi:namedview
     pagecolor="#ffffff"
     bordercolor="#666666"
     borderopacity="1"
     objecttolerance="10"
     gridtolerance="10"
     guidetolerance="10"
     inkscape:pageopacity="0"
     inkscape:pageshadow="2"
     inkscape:window-width="1920"
     inkscape:window-height="1176"
     id="namedview51"
     showgrid="false"
     showguides="true"
     inkscape:guide-bbox="true"
     inkscape:zoom="1.0885156"
     inkscape:cx="468.35422"
     inkscape:cy="453.03667"
     inkscape:window-x="0"
     inkscape:window-y="24"
     inkscape:window-maximized="1"
     inkscape:current-layer="Capa_1" /><path
     d="m 157.32146,34.82263 c 0.16809,0.1516 0.33927,0.29906 0.50737,0.45169 -0.1681,-0.15263 -0.34134,-0.30009 -0.50737,-0.45169 z"
     id="path3"
     inkscape:connector-curvature="0"
     style="fill:#e6332a" /><path
     d="m 160.93906,38.2309 c -0.13303,-0.132 -0.27225,-0.25575 -0.40734,-0.38569 0.1485,0.14541 0.30319,0.28463 0.45169,0.43209 -0.0134,-0.0113 -0.0289,-0.0299 -0.0443,-0.0464 z"
     id="path5"
     inkscape:connector-curvature="0"
     style="fill:#e6332a" /><g
     id="g7"
     transform="matrix(1.0312451,0,0,1.0312451,-68.234532,-223.29801)"><path
       d="m 115.281,266.583 c 2.056,-9.067 6.339,-17.313 12.972,-23.947 7.436,-7.436 16.897,-11.92 27.271,-13.617 -19.459,1.523 -38.495,9.703 -53.379,24.587 -14.543,14.543 -22.707,33.051 -24.493,52.045 1.845,-9.893 6.276,-18.897 13.418,-26.037 6.698,-6.7 15.04,-10.997 24.211,-13.031 z"
       id="path9"
       inkscape:connector-curvature="0"
       style="fill:#be1622" /><path
       d="m 209.198,360.819 c -2.054,9.066 -6.339,17.314 -12.973,23.948 -7.141,7.14 -16.146,11.572 -26.039,13.417 18.993,-1.786 37.501,-9.949 52.044,-24.491 14.219,-14.221 22.323,-32.231 24.348,-50.779 -1.969,9.434 -6.311,18.018 -13.171,24.877 -6.695,6.696 -15.037,10.996 -24.209,13.028 z"
       id="path11"
       inkscape:connector-curvature="0"
       style="fill:#be1622" /><path
       d="m 115.29,266.59 c 22.214,-4.921 49.317,3.549 69.87,24.103 20.634,20.634 29.095,47.869 24.047,70.134 9.171,-2.033 17.514,-6.332 24.209,-13.029 6.859,-6.859 11.203,-15.443 13.172,-24.876 2.693,-24.685 -5.396,-50.324 -24.305,-69.263 -0.145,-0.144 -0.294,-0.278 -0.438,-0.422 -0.862,-0.852 -1.734,-1.685 -2.623,-2.493 -0.164,-0.15 -0.329,-0.29 -0.492,-0.437 -17.844,-15.95 -40.799,-23.035 -63.198,-21.282 -10.375,1.697 -19.835,6.182 -27.271,13.618 -6.634,6.634 -10.917,14.88 -12.971,23.947 z"
       id="path13"
       inkscape:connector-curvature="0"
       style="fill:#4dc0a1" /><path
       d="m 170.191,398.178 c 9.892,-1.843 18.897,-6.275 26.038,-13.416 6.634,-6.635 10.919,-14.882 12.974,-23.949 -22.215,4.923 -49.318,-3.549 -69.872,-24.103 -20.633,-20.635 -29.093,-47.869 -24.045,-70.134 -9.172,2.033 -17.513,6.332 -24.21,13.029 -7.142,7.14 -11.574,16.146 -13.419,26.038 -2.286,24.313 5.876,49.425 24.494,68.042 18.615,18.618 43.727,26.78 68.04,24.493 z"
       id="path15"
       inkscape:connector-curvature="0"
       style="fill:#ea560d" /></g><path
     d="M 122.70153,76.4705 C 101.50634,55.27532 73.556508,46.53964 50.64843,51.6144 c -5.204694,22.95964 3.519639,51.0456 24.79835,72.32328 21.196211,21.19724 49.14502,29.93291 72.05413,24.85713 5.20469,-22.95861 -3.52067,-51.04663 -24.79938,-72.32431 z"
     id="path17"
     inkscape:connector-curvature="0"
     style="fill:none" /><g
     id="g19"
     transform="matrix(1.0312451,0,0,1.0312451,-68.234532,-223.29801)"><path
       d="m 275.73,317.214 c 0.097,8.364 6.058,15.096 14.808,15.096 6.538,0 10.77,-3.941 13.75,-9.325 l 6.538,3.748 c -4.328,8.077 -11.635,12.691 -20.866,12.691 -13.46,0 -22.114,-10.288 -22.114,-23.267 0,-13.367 7.788,-24.423 21.922,-24.423 14.52,0 22.211,12.019 21.441,25.479 H 275.73 z m 27.405,-6.538 c -1.059,-6.536 -6.539,-11.826 -13.271,-11.826 -6.633,0 -12.786,5.29 -13.748,11.826 h 27.019 z"
       id="path21"
       inkscape:connector-curvature="0"
       style="fill:#575756" /><path
       d="m 367.363,295.1 v -29.423 h 8.076 v 72.498 h -8.076 V 302.6 h -37.114 v 35.575 h -8.076 v -72.498 h 8.076 V 295.1 h 37.114 z"
       id="path23"
       inkscape:connector-curvature="0"
       style="fill:#575756" /><path
       d="m 394.285,317.214 c 0.096,8.364 6.058,15.096 14.808,15.096 6.537,0 10.767,-3.941 13.753,-9.325 l 6.531,3.748 c -4.324,8.077 -11.631,12.691 -20.862,12.691 -13.462,0 -22.115,-10.288 -22.115,-23.267 0,-13.367 7.789,-24.423 21.925,-24.423 14.521,0 22.208,12.019 21.439,25.479 h -35.479 z m 27.404,-6.538 c -1.061,-6.536 -6.541,-11.826 -13.271,-11.826 -6.633,0 -12.788,5.29 -13.748,11.826 h 27.019 z"
       id="path25"
       inkscape:connector-curvature="0"
       style="fill:#575756" /><path
       d="M 481.588,338.175 H 473.9 v -6.249 h -0.193 c -3.943,5 -9.23,7.498 -15.578,7.498 -13.268,0 -21.635,-11.249 -21.635,-23.747 0,-12.887 8.176,-23.942 21.734,-23.942 6.15,0 11.729,2.886 15.479,7.691 h 0.193 v -6.441 h 7.688 v 45.19 z m -37.209,-23.077 c 0,8.848 5.195,17.212 14.809,17.212 9.902,0 15.094,-7.979 15.094,-17.112 0,-9.039 -5.672,-16.348 -15.191,-16.348 -8.941,0 -14.712,7.789 -14.712,16.248 z"
       id="path27"
       inkscape:connector-curvature="0"
       style="fill:#575756" /><path
       d="m 503.322,338.175 h -7.693 v -79.324 h 7.693 v 79.324 z"
       id="path29"
       inkscape:connector-curvature="0"
       style="fill:#575756" /><path
       d="m 525.725,338.175 h -7.691 v -38.074 h -4.713 v -7.116 h 4.713 v -16.25 h 7.691 v 16.25 h 8.074 v 7.116 h -8.074 v 38.074 z"
       id="path31"
       inkscape:connector-curvature="0"
       style="fill:#575756" /><path
       d="m 548.414,258.851 v 39.421 l 0.191,0.193 c 3.174,-4.327 7.309,-6.731 12.889,-6.731 12.494,0 15.379,9.038 15.379,19.616 v 26.824 h -7.691 v -25.478 c 0,-7.311 -0.576,-13.848 -9.518,-13.848 -10.58,0 -11.25,9.808 -11.25,17.885 v 21.44 h -7.691 v -79.324 h 7.691 z"
       id="path33"
       inkscape:connector-curvature="0"
       style="fill:#575756" /><g
       id="g35"><path
         d="m 627.906,330.669 h 20 v 7.498 h -28.078 v -72.498 h 8.078 v 65 z"
         id="path37"
         inkscape:connector-curvature="0"
         style="fill:#575756" /><path
         d="m 697.133,338.167 h -7.691 v -6.249 h -0.193 c -3.943,5 -9.23,7.498 -15.578,7.498 -13.268,0 -21.631,-11.248 -21.631,-23.746 0,-12.888 8.172,-23.943 21.729,-23.943 6.152,0 11.732,2.886 15.48,7.692 h 0.193 v -6.442 h 7.691 v 45.19 z M 659.922,315.09 c 0,8.848 5.193,17.212 14.809,17.212 9.904,0 15.094,-7.979 15.094,-17.112 0,-9.039 -5.67,-16.348 -15.188,-16.348 -8.946,0 -14.715,7.789 -14.715,16.248 z"
         id="path39"
         inkscape:connector-curvature="0"
         style="fill:#575756" /><path
         d="m 710.979,258.843 h 7.691 v 40.576 h 0.193 c 3.654,-4.807 9.328,-7.692 15.48,-7.692 13.459,0 21.73,11.056 21.73,23.847 0,12.595 -8.365,23.843 -21.633,23.843 -6.25,0 -11.924,-2.595 -15.578,-7.498 h -0.193 v 6.249 h -7.691 v -79.325 z m 7.308,56.247 c 0,8.848 5.191,17.212 14.811,17.212 9.898,0 15.092,-7.979 15.092,-17.112 0,-9.039 -5.674,-16.348 -15.191,-16.348 -8.942,0 -14.712,7.789 -14.712,16.248 z"
         id="path41"
         inkscape:connector-curvature="0"
         style="fill:#575756" /></g><g
       id="g43"><path
         d="m 610.258,310.458 v 7.13 h -24.09 v -7.13 h 24.09 z"
         id="path45"
         inkscape:connector-curvature="0"
         style="fill:#575756" /><circle
         cx="610.258"
         cy="314.02301"
         r="5.7210002"
         id="circle47"
         d="m 615.979,314.02301 c 0,3.15962 -2.56138,5.721 -5.721,5.721 -3.15963,0 -5.721,-2.56138 -5.721,-5.721 0,-3.15962 2.56137,-5.721 5.721,-5.721 3.15962,0 5.721,2.56138 5.721,5.721 z"
         sodipodi:cx="610.258"
         sodipodi:cy="314.02301"
         sodipodi:rx="5.7210002"
         sodipodi:ry="5.7210002"
         style="fill:#575756" /><circle
         cx="586.16803"
         cy="314.02301"
         r="5.7189999"
         id="circle49"
         d="m 591.88703,314.02301 c 0,3.15852 -2.56048,5.719 -5.719,5.719 -3.15852,0 -5.719,-2.56048 -5.719,-5.719 0,-3.15852 2.56048,-5.719 5.719,-5.719 3.15852,0 5.719,2.56048 5.719,5.719 z"
         sodipodi:cx="586.16803"
         sodipodi:cy="314.02301"
         sodipodi:rx="5.7189999"
         sodipodi:ry="5.7189999"
         style="fill:#575756" /></g></g></svg>