<?xml version="1.0" encoding="utf-8"?>
<!-- Generator: Adobe Illustrator 16.0.0, SVG Export Plug-In . SVG Version: 6.00 Build 0)  -->
<!DOCTYPE svg PUBLIC "-//W3C//DTD SVG 1.1//EN" "http://www.w3.org/Graphics/SVG/1.1/DTD/svg11.dtd">
<svg version="1.1" id="Capa_1" xmlns="http://www.w3.org/2000/svg" xmlns:xlink="http://www.w3.org/1999/xlink" x="0px" y="0px"
	 width="841.89px" height="595.276px" viewBox="0 0 841.89 595.276" enable-background="new 0 0 841.89 595.276"
	 xml:space="preserve">
<g>
	<path fill="#BE1622" d="M336.399,132.632c3.729-16.599,11.536-31.684,23.657-43.808c13.589-13.59,30.903-21.764,49.896-24.83
		c-35.637,2.709-70.468,17.615-97.668,44.809c-26.578,26.583-41.454,60.445-44.644,95.229c3.338-18.115,11.416-34.588,24.467-47.638
		C304.347,144.158,319.61,136.317,336.399,132.632z"/>
	<path fill="#BE1622" d="M508.825,305.637c-3.724,16.604-11.538,31.688-23.663,43.813c-13.052,13.051-29.522,21.133-47.633,24.465
		c34.776-3.19,68.644-18.063,95.225-44.646c25.987-25.982,40.748-58.931,44.381-92.896c-3.564,17.265-11.485,32.97-24.019,45.507
		C540.875,294.117,525.617,301.957,508.825,305.637z"/>
	<path fill="#4DC0A1" d="M336.412,132.646c40.672-8.922,90.354,6.709,128.083,44.443c37.89,37.883,53.496,87.807,44.348,128.567
		c16.792-3.685,32.053-11.525,44.286-23.76c12.539-12.539,20.454-28.245,24.021-45.514c4.831-45.205-10.097-92.2-44.813-126.968
		c-0.265-0.263-0.537-0.514-0.803-0.778c-1.58-1.56-3.179-3.09-4.813-4.576c-0.302-0.274-0.604-0.532-0.902-0.804
		c-32.753-29.288-74.822-42.365-115.854-39.247c-18.989,3.068-36.301,11.239-49.89,24.827
		C347.949,100.962,340.138,116.042,336.412,132.646z"/>
	<path fill="#EA560D" d="M437.538,373.905c18.105-3.335,34.587-11.418,47.636-24.468c12.121-12.121,19.937-27.205,23.657-43.809
		c-40.665,8.92-90.349-6.715-128.083-44.447c-37.879-37.883-53.49-87.802-44.342-128.56c-16.786,3.685-32.048,11.521-44.29,23.762
		c-13.05,13.048-21.131,29.524-24.47,47.637c-4.082,44.522,10.973,90.554,45.157,124.733
		C346.978,362.934,393.011,377.988,437.538,373.905z"/>
</g>
<g>
	<path fill="#575756" d="M112.484,479.216c0.129,10.989,7.956,19.826,19.447,19.826c8.587,0,14.145-5.177,18.06-12.248l8.586,4.925
		c-5.684,10.61-15.28,16.669-27.404,16.669c-17.677,0-29.043-13.511-29.043-30.56c0-17.555,10.229-32.073,28.792-32.073
		c19.069,0,29.17,15.785,28.159,33.461H112.484z M148.475,470.63c-1.391-8.585-8.588-15.533-17.43-15.533
		c-8.712,0-16.792,6.948-18.054,15.533H148.475z"/>
	<path fill="#575756" d="M232.828,450.176v-38.644h10.605v95.213h-10.605v-46.722h-48.743v46.722h-10.606v-95.213h10.606v38.644
		H232.828z"/>
	<path fill="#575756" d="M268.184,479.216c0.126,10.989,7.956,19.826,19.448,19.826c8.585,0,14.139-5.177,18.061-12.248l8.581,4.925
		c-5.68,10.61-15.278,16.669-27.4,16.669c-17.679,0-29.044-13.511-29.044-30.56c0-17.555,10.229-32.073,28.794-32.073
		c19.069,0,29.167,15.785,28.156,33.461H268.184z M304.174,470.63c-1.391-8.585-8.588-15.533-17.427-15.533
		c-8.712,0-16.797,6.948-18.058,15.533H304.174z"/>
	<path fill="#575756" d="M382.842,506.746h-10.097v-8.207h-0.255c-5.179,6.57-12.122,9.85-20.458,9.85
		c-17.426,0-28.413-14.771-28.413-31.191c0-16.923,10.737-31.441,28.544-31.441c8.077,0,15.403,3.789,20.327,10.101h0.255v-8.459
		h10.097V506.746z M333.974,476.439c0,11.616,6.823,22.604,19.45,22.604c13.003,0,19.821-10.479,19.821-22.475
		c0-11.869-7.448-21.471-19.951-21.471C341.555,455.097,333.974,465.329,333.974,476.439z"/>
	<path fill="#575756" d="M411.385,506.746h-10.104V402.568h10.104V506.746z"/>
	<path fill="#575756" d="M440.807,506.746h-10.1v-50.003h-6.19v-9.346h6.19v-21.343h10.1v21.343h10.606v9.346h-10.606V506.746z"/>
	<path fill="#575756" d="M470.607,402.568v51.774l0.253,0.252c4.168-5.682,9.597-8.839,16.925-8.839
		c16.41,0,20.198,11.873,20.198,25.76v35.23h-10.102v-33.461c0-9.599-0.756-18.188-12.499-18.188
		c-13.896,0-14.775,12.882-14.775,23.49v28.158h-10.102V402.568H470.607z"/>
	<g>
		<path fill="#575756" d="M575.006,496.89h26.269v9.846h-36.876v-95.213h10.607V496.89z"/>
		<path fill="#575756" d="M665.924,506.736h-10.101v-8.208h-0.254c-5.181,6.571-12.124,9.85-20.46,9.85
			c-17.426,0-28.409-14.772-28.409-31.189c0-16.924,10.735-31.443,28.534-31.443c8.087,0,15.412,3.791,20.335,10.102h0.254v-8.462
			h10.101V506.736z M617.055,476.428c0,11.618,6.818,22.604,19.445,22.604c13.009,0,19.825-10.479,19.825-22.476
			c0-11.869-7.447-21.471-19.948-21.471C624.632,455.086,617.055,465.318,617.055,476.428z"/>
		<path fill="#575756" d="M684.111,402.558h10.099v53.288h0.255c4.798-6.311,12.249-10.102,20.331-10.102
			c17.677,0,28.537,14.52,28.537,31.318c0,16.542-10.986,31.314-28.41,31.314c-8.209,0-15.66-3.408-20.458-9.85h-0.255v8.208
			h-10.099V402.558z M693.705,476.428c0,11.618,6.82,22.604,19.454,22.604c12.997,0,19.819-10.479,19.819-22.476
			c0-11.869-7.452-21.471-19.951-21.471C701.285,455.086,693.705,465.318,693.705,476.428z"/>
	</g>
	<g>
		<path fill="#575756" d="M551.827,470.347v9.361H520.19v-9.361H551.827z"/>
		<path fill="#575756" d="M559.341,475.025c0,4.151-3.361,7.515-7.515,7.515c-4.146,0-7.511-3.363-7.511-7.515
			c0-4.146,3.365-7.51,7.511-7.51C555.98,467.515,559.341,470.878,559.341,475.025z"/>
		<path fill="#575756" d="M527.702,475.025c0,4.151-3.358,7.515-7.512,7.515c-4.146,0-7.511-3.363-7.511-7.515
			c0-4.146,3.365-7.51,7.511-7.51C524.343,467.515,527.702,470.878,527.702,475.025z"/>
	</g>
</g>
</svg>
